# xmcd
#
# Track frame offsets:
#	150
#	14194
#	30184
#	47847
#	65134
#	83447
#	100281
#	119486
#	136755
#	154163
#	169888
#	193554
#
# Disc length: 2795 seconds
#
# Revision: 1
# Processed by: cddbd v1.5.1PL0 Copyright (c) Steve Scherf et al.
# Submitted via: EasyCDDAExtractor 6.0.0.1
#
DISCID=9d0ae90c
DTITLE=Shania Twain - Wild and Wicked
DYEAR=2004
DGENRE=Pop
TTITLE0=Bite My Lip
TTITLE1=Wild and Wicked
TTITLE2=Send It With Love
TTITLE3=Once Over
TTITLE4=Hate To Love
TTITLE5=Luv Eyes
TTITLE6=I Lost My Heart When I Found You
TTITLE7=The Rhythm Made Me Do It
TTITLE8=Two Hearts One Love
TTITLE9=Half Breed
TTITLE10=For The Love Of Him (Dance Mix)
TTITLE11=For The Love Of Him
EXTD=
EXTT0=
EXTT1=
EXTT2=
EXTT3=
EXTT4=
EXTT5=
EXTT6=
EXTT7=
EXTT8=
EXTT9=
EXTT10=
EXTT11=
PLAYORDER=
